{
 "accessors": [
  {
   "componentType": 5126,
   "type": "VEC3",
   "count": 609,
   "max": [
    0.699999988079071,
    0.10000000149011612,
    0.699999988079071
   ],
   "min": [
    -0.699999988079071,
    -4.2862639840480875e-17,
    -0.699999988079071
   ],
   "bufferView": 4
  },
  {
   "componentType": 5126,
   "type": "VEC3",
   "count": 609,
   "bufferView": 5
  },
  {
   "componentType": 5126,
   "type": "VEC2",
   "count": 609,
   "bufferView": 6
  },
  {
   "componentType": 5123,
   "type": "SCALAR",
   "count": 1008,
   "bufferView": 7
  },
  {
   "componentType": 5126,
   "type": "VEC3",
   "count": 12729,
   "max": [
    0.44999998807907104,
    0.30000001192092896,
    0.44999998807907104
   ],
   "min": [
    -0.44999998807907104,
    -0.30000001192092896,
    -0.44999998807907104
   ],
   "bufferView": 8
  },
  {
   "componentType": 5126,
   "type": "VEC3",
   "count": 12729,
   "bufferView": 9
  },
  {
   "componentType": 5126,
   "type": "VEC2",
   "count": 12729,
   "bufferView": 10
  },
  {
   "componentType": 5123,
   "type": "SCALAR",
   "count": 69120,
   "bufferView": 11
  },
  {
   "componentType": 5126,
   "type": "VEC3",
   "count": 1525,
   "max": [
    1,
    0.5,
    0.9999904632568359
   ],
   "min": [
    -0.9999619126319885,
    -0.5,
    -0.9999143481254578
   ],
   "bufferView": 12
  },
  {
   "componentType": 5126,
   "type": "VEC3",
   "count": 1525,
   "bufferView": 13
  },
  {
   "componentType": 5126,
   "type": "VEC2",
   "count": 1525,
   "bufferView": 14
  },
  {
   "componentType": 5123,
   "type": "SCALAR",
   "count": 8280,
   "bufferView": 15
  },
  {
   "componentType": 5126,
   "type": "VEC3",
   "count": 148,
   "max": [
    0.6000000238418579,
    0.5,
    0.6000000238418579
   ],
   "min": [
    -0.6000000238418579,
    -0.5,
    -0.6000000238418579
   ],
   "bufferView": 16
  },
  {
   "componentType": 5126,
   "type": "VEC3",
   "count": 148,
   "bufferView": 17
  },
  {
   "componentType": 5126,
   "type": "VEC2",
   "count": 148,
   "bufferView": 18
  },
  {
   "componentType": 5121,
   "type": "SCALAR",
   "count": 288,
   "bufferView": 19
  },
  {
   "componentType": 5126,
   "type": "VEC3",
   "count": 24,
   "max": [
    1,
    0.25,
    1
   ],
   "min": [
    -1,
    -0.25,
    -1
   ],
   "bufferView": 20
  },
  {
   "componentType": 5126,
   "type": "VEC3",
   "count": 24,
   "bufferView": 21
  },
  {
   "componentType": 5126,
   "type": "VEC2",
   "count": 24,
   "bufferView": 22
  },
  {
   "componentType": 5121,
   "type": "SCALAR",
   "count": 36,
   "bufferView": 23
  },
  {
   "componentType": 5126,
   "type": "VEC3",
   "count": 148,
   "max": [
    0.44999998807907104,
    0.05000000074505806,
    0.44999998807907104
   ],
   "min": [
    -0.44999998807907104,
    -0.05000000074505806,
    -0.44999998807907104
   ],
   "bufferView": 24
  },
  {
   "componentType": 5126,
   "type": "VEC3",
   "count": 148,
   "bufferView": 25
  },
  {
   "componentType": 5126,
   "type": "VEC2",
   "count": 148,
   "bufferView": 26
  },
  {
   "componentType": 5121,
   "type": "SCALAR",
   "count": 288,
   "bufferView": 27
  },
  {
   "componentType": 5126,
   "type": "VEC3",
   "count": 120,
   "max": [
    0.75,
    0.5,
    0.75
   ],
   "min": [
    -0.75,
    -0.5,
    -0.75
   ],
   "bufferView": 28
  },
  {
   "componentType": 5126,
   "type": "VEC3",
   "count": 120,
   "bufferView": 29
  },
  {
   "componentType": 5126,
   "type": "VEC2",
   "count": 120,
   "bufferView": 30
  },
  {
   "componentType": 5121,
   "type": "SCALAR",
   "count": 288,
   "bufferView": 31
  },
  {
   "componentType": 5126,
   "type": "VEC3",
   "count": 148,
   "max": [
    0.699999988079071,
    0.5,
    0.699999988079071
   ],
   "min": [
    -0.699999988079071,
    -0.5,
    -0.699999988079071
   ],
   "bufferView": 32
  },
  {
   "componentType": 5126,
   "type": "VEC3",
   "count": 148,
   "bufferView": 33
  },
  {
   "componentType": 5126,
   "type": "VEC2",
   "count": 148,
   "bufferView": 34
  },
  {
   "componentType": 5121,
   "type": "SCALAR",
   "count": 288,
   "bufferView": 35
  },
  {
   "componentType": 5126,
   "type": "VEC3",
   "count": 148,
   "max": [
    0.5,
    0.10000000149011612,
    0.5
   ],
   "min": [
    -0.5,
    -0.10000000149011612,
    -0.5
   ],
   "bufferView": 36
  },
  {
   "componentType": 5126,
   "type": "VEC3",
   "count": 148,
   "bufferView": 37
  },
  {
   "componentType": 5126,
   "type": "VEC2",
   "count": 148,
   "bufferView": 38
  },
  {
   "componentType": 5121,
   "type": "SCALAR",
   "count": 288,
   "bufferView": 39
  },
  {
   "componentType": 5126,
   "type": "VEC3",
   "count": 50,
   "max": [
    0.4699999988079071,
    0.20000000298023224,
    0.4699999988079071
   ],
   "min": [
    -0.4699999988079071,
    -0.20000000298023224,
    -0.4699999988079071
   ],
   "bufferView": 40
  },
  {
   "componentType": 5126,
   "type": "VEC3",
   "count": 50,
   "bufferView": 41
  },
  {
   "componentType": 5126,
   "type": "VEC2",
   "count": 50,
   "bufferView": 42
  },
  {
   "componentType": 5121,
   "type": "SCALAR",
   "count": 72,
   "bufferView": 43
  },
  {
   "componentType": 5126,
   "type": "VEC3",
   "count": 4,
   "max": [
    2,
    1.2246468525851679e-16,
    2
   ],
   "min": [
    -2,
    -1.2246468525851679e-16,
    -2
   ],
   "bufferView": 44
  },
  {
   "componentType": 5126,
   "type": "VEC3",
   "count": 4,
   "bufferView": 45
  },
  {
   "componentType": 5126,
   "type": "VEC2",
   "count": 4,
   "bufferView": 46
  },
  {
   "componentType": 5121,
   "type": "SCALAR",
   "count": 6,
   "bufferView": 47
  },
  {
   "componentType": 5126,
   "type": "VEC3",
   "count": 625,
   "max": [
    0.7200000286102295,
    0.20000000298023224,
    0.7200000286102295
   ],
   "min": [
    -0.7200000286102295,
    -0.20000000298023224,
    -0.7200000286102295
   ],
   "bufferView": 48
  },
  {
   "componentType": 5126,
   "type": "VEC3",
   "count": 625,
   "bufferView": 49
  },
  {
   "componentType": 5126,
   "type": "VEC2",
   "count": 625,
   "bufferView": 50
  },
  {
   "componentType": 5123,
   "type": "SCALAR",
   "count": 3456,
   "bufferView": 51
  },
  {
   "componentType": 5126,
   "type": "VEC3",
   "count": 625,
   "max": [
    0.6100000143051147,
    0.20000000298023224,
    0.6100000143051147
   ],
   "min": [
    -0.6100000143051147,
    -0.20000000298023224,
    -0.6100000143051147
   ],
   "bufferView": 52
  },
  {
   "componentType": 5126,
   "type": "VEC3",
   "count": 625,
   "bufferView": 53
  },
  {
   "componentType": 5126,
   "type": "VEC2",
   "count": 625,
   "bufferView": 54
  },
  {
   "componentType": 5123,
   "type": "SCALAR",
   "count": 3456,
   "bufferView": 55
  },
  {
   "componentType": 5126,
   "type": "VEC3",
   "count": 1123,
   "max": [
    0.49585604667663574,
    0.27405816316604614,
    0.6929566860198975
   ],
   "min": [
    -0.6671571731567383,
    -0.5935743451118469,
    -1.2591605186462402
   ],
   "bufferView": 56
  },
  {
   "componentType": 5126,
   "type": "VEC3",
   "count": 1123,
   "bufferView": 57
  },
  {
   "componentType": 5126,
   "type": "VEC2",
   "count": 1123,
   "bufferView": 58
  },
  {
   "componentType": 5123,
   "type": "SCALAR",
   "count": 2592,
   "bufferView": 59
  },
  {
   "componentType": 5126,
   "type": "VEC3",
   "count": 1123,
   "max": [
    0.49585604667663574,
    0.27405816316604614,
    0.6929566860198975
   ],
   "min": [
    -0.6671571731567383,
    -0.5935743451118469,
    -1.2591605186462402
   ],
   "bufferView": 60
  },
  {
   "componentType": 5126,
   "type": "VEC3",
   "count": 1123,
   "bufferView": 61
  },
  {
   "componentType": 5126,
   "type": "VEC2",
   "count": 1123,
   "bufferView": 62
  },
  {
   "componentType": 5123,
   "type": "SCALAR",
   "count": 2592,
   "bufferView": 63
  },
  {
   "componentType": 5126,
   "type": "VEC3",
   "count": 1123,
   "max": [
    0.49585604667663574,
    0.27405816316604614,
    0.6929566860198975
   ],
   "min": [
    -0.6671571731567383,
    -0.5935743451118469,
    -1.2591605186462402
   ],
   "bufferView": 64
  },
  {
   "componentType": 5126,
   "type": "VEC3",
   "count": 1123,
   "bufferView": 65
  },
  {
   "componentType": 5126,
   "type": "VEC2",
   "count": 1123,
   "bufferView": 66
  },
  {
   "componentType": 5123,
   "type": "SCALAR",
   "count": 2592,
   "bufferView": 67
  }
 ],
 "asset": {
  "version": "2.0",
  "generator": "clara.io"
 },
 "bufferViews": [
  {
   "buffer": 0,
   "byteOffset": 0,
   "byteLength": 25024
  },
  {
   "buffer": 0,
   "byteOffset": 25024,
   "byteLength": 361621
  },
  {
   "buffer": 0,
   "byteOffset": 386648,
   "byteLength": 342185
  },
  {
   "buffer": 0,
   "byteOffset": 728836,
   "byteLength": 29673
  },
  {
   "buffer": 0,
   "byteOffset": 758512,
   "byteLength": 7308,
   "target": 34962,
   "byteStride": 12
  },
  {
   "buffer": 0,
   "byteOffset": 765820,
   "byteLength": 7308,
   "target": 34962,
   "byteStride": 12
  },
  {
   "buffer": 0,
   "byteOffset": 773128,
   "byteLength": 4872,
   "target": 34962,
   "byteStride": 8
  },
  {
   "buffer": 0,
   "byteOffset": 778000,
   "byteLength": 2016,
   "target": 34963
  },
  {
   "buffer": 0,
   "byteOffset": 780016,
   "byteLength": 152748,
   "target": 34962,
   "byteStride": 12
  },
  {
   "buffer": 0,
   "byteOffset": 932764,
   "byteLength": 152748,
   "target": 34962,
   "byteStride": 12
  },
  {
   "buffer": 0,
   "byteOffset": 1085512,
   "byteLength": 101832,
   "target": 34962,
   "byteStride": 8
  },
  {
   "buffer": 0,
   "byteOffset": 1187344,
   "byteLength": 138240,
   "target": 34963
  },
  {
   "buffer": 0,
   "byteOffset": 1325584,
   "byteLength": 18300,
   "target": 34962,
   "byteStride": 12
  },
  {
   "buffer": 0,
   "byteOffset": 1343884,
   "byteLength": 18300,
   "target": 34962,
   "byteStride": 12
  },
  {
   "buffer": 0,
   "byteOffset": 1362184,
   "byteLength": 12200,
   "target": 34962,
   "byteStride": 8
  },
  {
   "buffer": 0,
   "byteOffset": 1374384,
   "byteLength": 16560,
   "target": 34963
  },
  {
   "buffer": 0,
   "byteOffset": 1390944,
   "byteLength": 1776,
   "target": 34962,
   "byteStride": 12
  },
  {
   "buffer": 0,
   "byteOffset": 1392720,
   "byteLength": 1776,
   "target": 34962,
   "byteStride": 12
  },
  {
   "buffer": 0,
   "byteOffset": 1394496,
   "byteLength": 1184,
   "target": 34962,
   "byteStride": 8
  },
  {
   "buffer": 0,
   "byteOffset": 1395680,
   "byteLength": 288,
   "target": 34963
  },
  {
   "buffer": 0,
   "byteOffset": 1395968,
   "byteLength": 288,
   "target": 34962,
   "byteStride": 12
  },
  {
   "buffer": 0,
   "byteOffset": 1396256,
   "byteLength": 288,
   "target": 34962,
   "byteStride": 12
  },
  {
   "buffer": 0,
   "byteOffset": 1396544,
   "byteLength": 192,
   "target": 34962,
   "byteStride": 8
  },
  {
   "buffer": 0,
   "byteOffset": 1396736,
   "byteLength": 36,
   "target": 34963
  },
  {
   "buffer": 0,
   "byteOffset": 1396772,
   "byteLength": 1776,
   "target": 34962,
   "byteStride": 12
  },
  {
   "buffer": 0,
   "byteOffset": 1398548,
   "byteLength": 1776,
   "target": 34962,
   "byteStride": 12
  },
  {
   "buffer": 0,
   "byteOffset": 1400324,
   "byteLength": 1184,
   "target": 34962,
   "byteStride": 8
  },
  {
   "buffer": 0,
   "byteOffset": 1401508,
   "byteLength": 288,
   "target": 34963
  },
  {
   "buffer": 0,
   "byteOffset": 1401796,
   "byteLength": 1440,
   "target": 34962,
   "byteStride": 12
  },
  {
   "buffer": 0,
   "byteOffset": 1403236,
   "byteLength": 1440,
   "target": 34962,
   "byteStride": 12
  },
  {
   "buffer": 0,
   "byteOffset": 1404676,
   "byteLength": 960,
   "target": 34962,
   "byteStride": 8
  },
  {
   "buffer": 0,
   "byteOffset": 1405636,
   "byteLength": 288,
   "target": 34963
  },
  {
   "buffer": 0,
   "byteOffset": 1405924,
   "byteLength": 1776,
   "target": 34962,
   "byteStride": 12
  },
  {
   "buffer": 0,
   "byteOffset": 1407700,
   "byteLength": 1776,
   "target": 34962,
   "byteStride": 12
  },
  {
   "buffer": 0,
   "byteOffset": 1409476,
   "byteLength": 1184,
   "target": 34962,
   "byteStride": 8
  },
  {
   "buffer": 0,
   "byteOffset": 1410660,
   "byteLength": 288,
   "target": 34963
  },
  {
   "buffer": 0,
   "byteOffset": 1410948,
   "byteLength": 1776,
   "target": 34962,
   "byteStride": 12
  },
  {
   "buffer": 0,
   "byteOffset": 1412724,
   "byteLength": 1776,
   "target": 34962,
   "byteStride": 12
  },
  {
   "buffer": 0,
   "byteOffset": 1414500,
   "byteLength": 1184,
   "target": 34962,
   "byteStride": 8
  },
  {
   "buffer": 0,
   "byteOffset": 1415684,
   "byteLength": 288,
   "target": 34963
  },
  {
   "buffer": 0,
   "byteOffset": 1415972,
   "byteLength": 600,
   "target": 34962,
   "byteStride": 12
  },
  {
   "buffer": 0,
   "byteOffset": 1416572,
   "byteLength": 600,
   "target": 34962,
   "byteStride": 12
  },
  {
   "buffer": 0,
   "byteOffset": 1417172,
   "byteLength": 400,
   "target": 34962,
   "byteStride": 8
  },
  {
   "buffer": 0,
   "byteOffset": 1417572,
   "byteLength": 72,
   "target": 34963
  },
  {
   "buffer": 0,
   "byteOffset": 1417644,
   "byteLength": 48,
   "target": 34962,
   "byteStride": 12
  },
  {
   "buffer": 0,
   "byteOffset": 1417692,
   "byteLength": 48,
   "target": 34962,
   "byteStride": 12
  },
  {
   "buffer": 0,
   "byteOffset": 1417740,
   "byteLength": 32,
   "target": 34962,
   "byteStride": 8
  },
  {
   "buffer": 0,
   "byteOffset": 1417772,
   "byteLength": 6,
   "target": 34963
  },
  {
   "buffer": 0,
   "byteOffset": 1417780,
   "byteLength": 7500,
   "target": 34962,
   "byteStride": 12
  },
  {
   "buffer": 0,
   "byteOffset": 1425280,
   "byteLength": 7500,
   "target": 34962,
   "byteStride": 12
  },
  {
   "buffer": 0,
   "byteOffset": 1432780,
   "byteLength": 5000,
   "target": 34962,
   "byteStride": 8
  },
  {
   "buffer": 0,
   "byteOffset": 1437780,
   "byteLength": 6912,
   "target": 34963
  },
  {
   "buffer": 0,
   "byteOffset": 1444692,
   "byteLength": 7500,
   "target": 34962,
   "byteStride": 12
  },
  {
   "buffer": 0,
   "byteOffset": 1452192,
   "byteLength": 7500,
   "target": 34962,
   "byteStride": 12
  },
  {
   "buffer": 0,
   "byteOffset": 1459692,
   "byteLength": 5000,
   "target": 34962,
   "byteStride": 8
  },
  {
   "buffer": 0,
   "byteOffset": 1464692,
   "byteLength": 6912,
   "target": 34963
  },
  {
   "buffer": 0,
   "byteOffset": 1471604,
   "byteLength": 13476,
   "target": 34962,
   "byteStride": 12
  },
  {
   "buffer": 0,
   "byteOffset": 1485080,
   "byteLength": 13476,
   "target": 34962,
   "byteStride": 12
  },
  {
   "buffer": 0,
   "byteOffset": 1498556,
   "byteLength": 8984,
   "target": 34962,
   "byteStride": 8
  },
  {
   "buffer": 0,
   "byteOffset": 1507540,
   "byteLength": 5184,
   "target": 34963
  },
  {
   "buffer": 0,
   "byteOffset": 1512724,
   "byteLength": 13476,
   "target": 34962,
   "byteStride": 12
  },
  {
   "buffer": 0,
   "byteOffset": 1526200,
   "byteLength": 13476,
   "target": 34962,
   "byteStride": 12
  },
  {
   "buffer": 0,
   "byteOffset": 1539676,
   "byteLength": 8984,
   "target": 34962,
   "byteStride": 8
  },
  {
   "buffer": 0,
   "byteOffset": 1548660,
   "byteLength": 5184,
   "target": 34963
  },
  {
   "buffer": 0,
   "byteOffset": 1553844,
   "byteLength": 13476,
   "target": 34962,
   "byteStride": 12
  },
  {
   "buffer": 0,
   "byteOffset": 1567320,
   "byteLength": 13476,
   "target": 34962,
   "byteStride": 12
  },
  {
   "buffer": 0,
   "byteOffset": 1580796,
   "byteLength": 8984,
   "target": 34962,
   "byteStride": 8
  },
  {
   "buffer": 0,
   "byteOffset": 1589780,
   "byteLength": 5184,
   "target": 34963
  }
 ],
 "buffers": [
  {
   "byteLength": 1594964,
   "uri": "data:application/octet-stream;base64,"
  }
 ],
 "images": [
  {
   "name": "img-0.jpeg",
   "bufferView": 0,
   "mimeType": "image/jpeg"
  },
  {
   "name": "img-1.jpeg",
   "bufferView": 1,
   "mimeType": "image/jpeg"
  },
  {
   "name": "img-1.png",
   "bufferView": 2,
   "mimeType": "image/png"
  },
  {
   "name": "img-2.jpeg",
   "bufferView": 3,
   "mimeType": "image/jpeg"
  }
 ],
 "materials": [
  {
   "name": "Standard2",
   "pbrMetallicRoughness": {
    "baseColorFactor": [
     0.6901960784313725,
     0.6901960784313725,
     0.6901960784313725,
     1
    ],
    "baseColorTexture": {
     "index": 1,
     "texCoord": 0
    },
    "roughnessFactor": 0.1961,
    "metallicFactor": 0
   },
   "doubleSided": true
  },
  {
   "name": "Standard",
   "pbrMetallicRoughness": {
    "baseColorFactor": [
     0.94,
     0.94,
     0.94,
     1
    ],
    "baseColorTexture": {
     "index": 0,
     "texCoord": 0
    },
    "roughnessFactor": 0.1961,
    "metallicFactor": 0
   },
   "doubleSided": true
  },
  {
   "name": "Standard1",
   "pbrMetallicRoughness": {
    "baseColorFactor": [
     0.6901960784313725,
     0.6901960784313725,
     0.6901960784313725,
     1
    ],
    "roughnessFactor": 0.1964,
    "metallicFactor": 0
   },
   "doubleSided": true
  },
  {
   "name": "Default-Torus2",
   "pbrMetallicRoughness": {
    "baseColorFactor": [
     0.6901960784313725,
     0.6901960784313725,
     0.6901960784313725,
     1
    ],
    "roughnessFactor": 0.25,
    "metallicFactor": 0
   },
   "doubleSided": true
  },
  {
   "name": "Default-Torus3",
   "pbrMetallicRoughness": {
    "baseColorFactor": [
     0.6901960784313725,
     0.6901960784313725,
     0.6901960784313725,
     1
    ],
    "roughnessFactor": 0.25,
    "metallicFactor": 0
   },
   "doubleSided": true
  },
  {
   "name": "rock_dark_normalMaterial",
   "pbrMetallicRoughness": {
    "baseColorFactor": [
     0,
     0.17647058823529413,
     0.6392156862745098,
     1
    ],
    "baseColorTexture": {
     "index": 2,
     "texCoord": 0
    },
    "roughnessFactor": 0.25,
    "metallicFactor": 0
   },
   "doubleSided": true
  },
  {
   "name": "rockMaterial",
   "pbrMetallicRoughness": {
    "baseColorTexture": {
     "index": 3,
     "texCoord": 0
    },
    "roughnessFactor": 0.25,
    "metallicFactor": 0
   },
   "emissiveFactor": [
    0.0196078431372549,
    0.0196078431372549,
    0.0196078431372549
   ],
   "doubleSided": true
  }
 ],
 "meshes": [
  {
   "primitives": [
    {
     "indices": 3,
     "material": 2,
     "mode": 4,
     "attributes": {
      "POSITION": 0,
      "NORMAL": 1,
      "TEXCOORD_0": 2
     }
    }
   ]
  },
  {
   "primitives": [
    {
     "indices": 7,
     "material": 1,
     "mode": 4,
     "attributes": {
      "POSITION": 4,
      "NORMAL": 5,
      "TEXCOORD_0": 6
     }
    }
   ]
  },
  {
   "primitives": [
    {
     "indices": 11,
     "material": 2,
     "mode": 4,
     "attributes": {
      "POSITION": 8,
      "NORMAL": 9,
      "TEXCOORD_0": 10
     }
    }
   ]
  },
  {
   "primitives": [
    {
     "indices": 15,
     "material": 1,
     "mode": 4,
     "attributes": {
      "POSITION": 12,
      "NORMAL": 13,
      "TEXCOORD_0": 14
     }
    }
   ]
  },
  {
   "primitives": [
    {
     "indices": 19,
     "material": 2,
     "mode": 4,
     "attributes": {
      "POSITION": 16,
      "NORMAL": 17,
      "TEXCOORD_0": 18
     }
    }
   ]
  },
  {
   "primitives": [
    {
     "indices": 23,
     "material": 1,
     "mode": 4,
     "attributes": {
      "POSITION": 20,
      "NORMAL": 21,
      "TEXCOORD_0": 22
     }
    }
   ]
  },
  {
   "primitives": [
    {
     "indices": 27,
     "material": 1,
     "mode": 4,
     "attributes": {
      "POSITION": 24,
      "NORMAL": 25,
      "TEXCOORD_0": 26
     }
    }
   ]
  },
  {
   "primitives": [
    {
     "indices": 31,
     "material": 0,
     "mode": 4,
     "attributes": {
      "POSITION": 28,
      "NORMAL": 29,
      "TEXCOORD_0": 30
     }
    }
   ]
  },
  {
   "primitives": [
    {
     "indices": 35,
     "material": 0,
     "mode": 4,
     "attributes": {
      "POSITION": 32,
      "NORMAL": 33,
      "TEXCOORD_0": 34
     }
    }
   ]
  },
  {
   "primitives": [
    {
     "indices": 39,
     "material": 0,
     "mode": 4,
     "attributes": {
      "POSITION": 36,
      "NORMAL": 37,
      "TEXCOORD_0": 38
     }
    }
   ]
  },
  {
   "primitives": [
    {
     "indices": 43,
     "material": 5,
     "mode": 4,
     "attributes": {
      "POSITION": 40,
      "NORMAL": 41,
      "TEXCOORD_0": 42
     }
    }
   ]
  },
  {
   "primitives": [
    {
     "indices": 47,
     "material": 3,
     "mode": 4,
     "attributes": {
      "POSITION": 44,
      "NORMAL": 45,
      "TEXCOORD_0": 46
     }
    }
   ]
  },
  {
   "primitives": [
    {
     "indices": 51,
     "material": 4,
     "mode": 4,
     "attributes": {
      "POSITION": 48,
      "NORMAL": 49,
      "TEXCOORD_0": 50
     }
    }
   ]
  },
  {
   "primitives": [
    {
     "indices": 55,
     "material": 6,
     "mode": 4,
     "attributes": {
      "POSITION": 52,
      "NORMAL": 53,
      "TEXCOORD_0": 54
     }
    }
   ]
  },
  {
   "primitives": [
    {
     "indices": 59,
     "material": 6,
     "mode": 4,
     "attributes": {
      "POSITION": 56,
      "NORMAL": 57,
      "TEXCOORD_0": 58
     }
    }
   ]
  },
  {
   "primitives": [
    {
     "indices": 63,
     "material": 6,
     "mode": 4,
     "attributes": {
      "POSITION": 60,
      "NORMAL": 61,
      "TEXCOORD_0": 62
     }
    }
   ]
  }
 ],
 "nodes": [
  {
   "name": "lighthouse",
   "translation": [
    -16.038000106811523,
    18.475900650024414,
    2.8106000423431396
   ],
   "scale": [
    10.849100112915039,
    10.849100112915039,
    10.674300193786621
   ],
   "children": [
    2,
    3,
    4,
    5,
    6,
    7,
    8,
    9,
    10,
    11,
    13,
    14
   ]
  },
  {
   "name": "Rocks",
   "children": [
    12,
    15,
    16,
    17
   ]
  },
  {
   "name": "Torus1",
   "translation": [
    0,
    2.534600019454956,
    0
   ],
   "scale": [
    1.3321000337600708,
    1.795199990272522,
    1.3461999893188477
   ],
   "mesh": 0
  },
  {
   "name": "Cylinder4",
   "translation": [
    0,
    2.876300096511841,
    0
   ],
   "mesh": 1
  },
  {
   "name": "Torus",
   "translation": [
    0,
    2.5315001010894775,
    0
   ],
   "scale": [
    0.9056000113487244,
    0.11089999973773956,
    0.9251999855041504
   ],
   "mesh": 2
  },
  {
   "name": "Cylinder2",
   "translation": [
    0,
    2,
    0
   ],
   "mesh": 3
  },
  {
   "name": "Box",
   "translation": [
    0,
    -0.7366999983787537,
    0
   ],
   "mesh": 4
  },
  {
   "name": "Cylinder5",
   "translation": [
    0,
    3.2258999347686768,
    0
   ],
   "mesh": 5
  },
  {
   "name": "Cylinder",
   "mesh": 6
  },
  {
   "name": "Cylinder1",
   "translation": [
    0,
    1,
    0
   ],
   "mesh": 7
  },
  {
   "name": "Cylinder3",
   "translation": [
    0,
    2.6731998920440674,
    0
   ],
   "mesh": 8
  },
  {
   "name": "Cone",
   "translation": [
    0,
    3.4730000495910645,
    0
   ],
   "mesh": 9
  },
  {
   "name": "Plane",
   "translation": [
    -3.7088000774383545,
    0.23399999737739563,
    -5.978000164031982
   ],
   "rotation": [
    0.0001043861291915015,
    0.9991056943498443,
    0.04207551587031242,
    -0.004179360573288787
   ],
   "scale": [
    51.85509938493212,
    148.55000656997802,
    57.38260065582683
   ],
   "mesh": 10
  },
  {
   "name": "Torus2",
   "translation": [
    0,
    0.503000020980835,
    0
   ],
   "scale": [
    1,
    0.22030000388622284,
    1
   ],
   "mesh": 11
  },
  {
   "name": "Torus3",
   "translation": [
    0,
    1.4903000593185425,
    0
   ],
   "scale": [
    1,
    0.22030000388622284,
    1
   ],
   "mesh": 12
  },
  {
   "name": "Box4",
   "translation": [
    -24.988800048828125,
    5.835700035095215,
    20.37779998779297
   ],
   "rotation": [
    0.31669674761769406,
    -0.6814194124507058,
    -0.38414058159095243,
    0.536476237189647
   ],
   "scale": [
    50.20309669137848,
    77.6616973984358,
    50.88619808082689
   ],
   "mesh": 13
  },
  {
   "name": "Box5",
   "translation": [
    -17.37809944152832,
    5.835700035095215,
    48.582000732421875
   ],
   "rotation": [
    0.18569120457319685,
    -0.4840443529272079,
    -0.4636642081681435,
    0.7184951825503864
   ],
   "scale": [
    50.203098182554754,
    77.66169756293094,
    50.88620044347188
   ],
   "mesh": 14
  },
  {
   "name": "Box6",
   "translation": [
    -2.974900007247925,
    17.981599807739258,
    -13.665499687194824
   ],
   "rotation": [
    0.048099351944950915,
    -0.2550247418684931,
    -0.5022072453658677,
    0.8248858802790029
   ],
   "scale": [
    50.20309984085279,
    77.66169966064173,
    50.8862009491468
   ],
   "mesh": 15
  }
 ],
 "samplers": [
  {
   "magFilter": 9729,
   "minFilter": 9987,
   "wrapS": 10497,
   "wrapT": 10497
  }
 ],
 "scene": 0,
 "scenes": [
  {
   "nodes": [
    0,
    1
   ]
  }
 ],
 "textures": [
  {
   "sampler": 0,
   "source": 0
  },
  {
   "sampler": 0,
   "source": 1
  },
  {
   "sampler": 0,
   "source": 2
  },
  {
   "sampler": 0,
   "source": 3
  }
 ]
}